<svg width="61" height="60" viewBox="0 0 61 60" fill="none" xmlns="http://www.w3.org/2000/svg">
<g clip-path="url(#clip0_194_284)">
<g clip-path="url(#clip1_194_284)">
<g clip-path="url(#clip2_194_284)">
<mask id="mask0_194_284" style="mask-type:luminance" maskUnits="userSpaceOnUse" x="0" y="0" width="61" height="60">
<path fill-rule="evenodd" clip-rule="evenodd" d="M0.330078 0H60.3301V60H0.330078V0Z" fill="white"/>
</mask>
<g mask="url(#mask0_194_284)">
<path d="M15.8316 36.1307C16.9202 36.1307 17.8095 35.2331 17.8095 34.1498C17.8095 33.051 16.9202 32.1689 15.8316 32.1689C14.7431 32.1689 13.8691 33.051 13.8691 34.1498C13.8691 35.2331 14.7431 36.1307 15.8316 36.1307ZM21.9951 36.1307C23.0836 36.1307 23.9729 35.2331 23.9729 34.1498C23.9729 33.051 23.0836 32.1689 21.9951 32.1689C20.8912 32.1689 20.0173 33.051 20.0173 34.1498C20.0173 35.2331 20.8912 36.1307 21.9951 36.1307ZM28.1432 36.1307C29.2164 36.1307 30.1057 35.2331 30.1057 34.1498C30.1057 33.051 29.2164 32.1689 28.1432 32.1689C27.0546 32.1689 26.1654 33.051 26.1654 34.1498C26.1654 35.2331 27.0546 36.1307 28.1432 36.1307Z" fill="#8E8E93"/>
<path d="M42.1265 44.9828C45.0242 44.9828 46.6034 43.4508 46.6034 40.5259V27.7123L44.135 30.2038V40.6497C44.135 41.9342 43.4144 42.6615 42.1418 42.6615H11.9225C10.65 42.6615 9.92938 41.9342 9.92938 40.6497V27.6349C9.92938 26.3504 10.65 25.6231 11.9225 25.6231H36.745L39.0601 23.3018H11.9532C9.05546 23.3018 7.46094 24.8338 7.46094 27.7587V40.5259C7.46094 43.4508 9.05546 44.9828 11.9532 44.9828H42.1265Z" fill="#C7C7CC"/>
<path d="M51.6331 18.7674L52.783 17.5913C53.3349 17.0187 53.3349 16.2604 52.7983 15.7342L52.4304 15.3628C51.9397 14.8676 51.1731 14.914 50.6518 15.4402L49.502 16.5854L51.6331 18.7674Z" fill="#8E8E93"/>
<path d="M34.0167 34.7998L37.1444 33.3916L50.4986 19.9279L48.3521 17.7769L35.0133 31.2405L33.5414 34.2891C33.4188 34.5522 33.7254 34.9236 34.0167 34.7998Z" fill="#3478F6"/>
</g>
</g>
</g>
</g>
<defs>
<clipPath id="clip0_194_284">
<rect width="60" height="60" fill="white" transform="translate(0.330078)"/>
</clipPath>
<clipPath id="clip1_194_284">
<rect width="60" height="60" fill="white" transform="translate(0.330078)"/>
</clipPath>
<clipPath id="clip2_194_284">
<rect width="60" height="60" fill="white" transform="translate(0.330078)"/>
</clipPath>
</defs>
</svg>
