<svg width="61" height="60" viewBox="0 0 61 60" fill="none" xmlns="http://www.w3.org/2000/svg">
<g clip-path="url(#clip0_194_316)">
<g clip-path="url(#clip1_194_316)">
<g clip-path="url(#clip2_194_316)">
<mask id="mask0_194_316" style="mask-type:luminance" maskUnits="userSpaceOnUse" x="0" y="0" width="61" height="60">
<path fill-rule="evenodd" clip-rule="evenodd" d="M0.330078 0H60.3301V60H0.330078V0Z" fill="white"/>
</mask>
<g mask="url(#mask0_194_316)">
<path fill-rule="evenodd" clip-rule="evenodd" d="M41.0445 7C44.3578 7 47.0439 9.68602 47.0439 12.9994V47.0006C47.0439 50.314 44.3578 53 41.0445 53H19.6166C16.3032 53 13.6172 50.314 13.6172 47.0006V12.9994C13.6172 9.68602 16.3032 7 19.6166 7H41.0445ZM39.3751 45.6383H31.0959C30.5516 45.6383 30.1103 46.0796 30.1103 46.6239C30.1103 47.1683 30.5516 47.6095 31.0959 47.6095H39.3751C39.9194 47.6095 40.3607 47.1683 40.3607 46.6239C40.3607 46.0796 39.9194 45.6383 39.3751 45.6383ZM32.6729 40.1189H19.6628C19.1185 40.1189 18.6772 40.5602 18.6772 41.1045C18.6772 41.6488 19.1185 42.0901 19.6628 42.0901H32.6729C33.2172 42.0901 33.6585 41.6488 33.6585 41.1045C33.6585 40.5602 33.2172 40.1189 32.6729 40.1189ZM39.3751 40.1189H36.6154C36.071 40.1189 35.6297 40.5602 35.6297 41.1045C35.6297 41.6488 36.071 42.0901 36.6154 42.0901H39.3751C39.9194 42.0901 40.3607 41.6488 40.3607 41.1045C40.3607 40.5602 39.9194 40.1189 39.3751 40.1189ZM32.6729 34.5994H19.6628C19.1185 34.5994 18.6772 35.0407 18.6772 35.585C18.6772 36.1294 19.1185 36.5707 19.6628 36.5707H32.6729C33.2172 36.5707 33.6585 36.1294 33.6585 35.585C33.6585 35.0407 33.2172 34.5994 32.6729 34.5994ZM39.3751 34.5994H36.6154C36.071 34.5994 35.6297 35.0407 35.6297 35.585C35.6297 36.1294 36.071 36.5707 36.6154 36.5707H39.3751C39.9194 36.5707 40.3607 36.1294 40.3607 35.585C40.3607 35.0407 39.9194 34.5994 39.3751 34.5994ZM32.6729 29.08H19.6628C19.1185 29.08 18.6772 29.5213 18.6772 30.0656C18.6772 30.61 19.1185 31.0512 19.6628 31.0512H32.6729C33.2172 31.0512 33.6585 30.61 33.6585 30.0656C33.6585 29.5213 33.2172 29.08 32.6729 29.08ZM39.3751 29.08H36.6154C36.071 29.08 35.6297 29.5213 35.6297 30.0656C35.6297 30.61 36.071 31.0512 36.6154 31.0512H39.3751C39.9194 31.0512 40.3607 30.61 40.3607 30.0656C40.3607 29.5213 39.9194 29.08 39.3751 29.08ZM32.3147 14.9201C31.3498 14.9201 30.4973 15.4514 30.0414 15.4514C29.5655 15.4514 28.8716 14.8938 28.0918 14.9201C27.0741 14.9398 26.1423 15.5367 25.6203 16.4157C25.2502 17.0455 25.1048 17.7867 25.118 18.5411C25.1378 19.9646 25.6996 21.4471 26.3604 22.3917C26.8693 23.1133 27.4442 23.8874 28.2571 23.8874C28.9906 23.8874 29.2615 23.4019 30.2198 23.4019C31.1119 23.4019 31.3895 23.8874 32.1627 23.8874C32.9755 23.8874 33.5108 23.1527 33.9932 22.4245C34.6012 21.5783 34.8061 20.7714 34.8325 20.7386C34.8061 20.7386 33.2729 20.122 33.2134 18.364C33.2134 16.8224 34.4757 16.1271 34.5285 16.0943C33.8412 15.0447 32.731 14.9201 32.3147 14.9201ZM32.3742 12.06C31.753 12.06 31.0326 12.4208 30.5766 12.9521C30.2198 13.3916 29.8365 14.0804 29.9753 14.7692C30.6163 14.8479 31.3102 14.4478 31.7067 13.9164C32.1627 13.4244 32.4138 12.7488 32.3742 12.06Z" fill="#77C5F5"/>
</g>
</g>
</g>
</g>
<defs>
<clipPath id="clip0_194_316">
<rect width="60" height="60" fill="white" transform="translate(0.330078)"/>
</clipPath>
<clipPath id="clip1_194_316">
<rect width="60" height="60" fill="white" transform="translate(0.330078)"/>
</clipPath>
<clipPath id="clip2_194_316">
<rect width="60" height="60" fill="white" transform="translate(0.330078)"/>
</clipPath>
</defs>
</svg>
